<svg xmlns="http://www.w3.org/2000/svg" width="30" height="26" viewBox="0 0 30 26">
    <g fill="none" fill-rule="evenodd">
        <g fill="#EB3B4B">
            <g>
                <path d="M5.441 2.087C4.847 1.046 5.688 0 6.661 0l16.594.012c1.37 0 1.736 1.275 1.184 2.155l-2.987 5.128c-.481.953-1.68.916-2.209.037l-2.89-4.99c-.794-1.34-1.915-1.368-2.737 0l-2.832 4.855c-.398.737.223 1.822 1.222 1.822h16.589c1.15 0 1.705 1.267 1.242 2.077L21.614 25.22c-.54 1.06-2.065.998-2.658.013l-2.914-4.923c-.596-1.048.214-2.266 1.188-2.266h6.183c.928 0 1.474-.956.943-1.883l-2.714-4.74c-.713-1.202-1.851-1.268-2.6-.052l-8.09 13.821c-.523 1.054-1.789 1.08-2.39.068L.22 11.145c-.654-1.16.263-2.147 1.284-2.147H7.25c1.422 0 1.814 1.252 1.254 2.157L5.53 16.273c-.44.78.257 1.784 1.222 1.784h5.996c.917 0 1.52-.835.99-1.766L5.44 2.087z" transform="translate(-26 -23) translate(26 23)"/>
            </g>
        </g>
    </g>
</svg>
